<?xml version="1.0" standalone="no"?>
<!DOCTYPE svg PUBLIC "-//W3C//DTD SVG 20010904//EN"
 "http://www.w3.org/TR/2001/REC-SVG-20010904/DTD/svg10.dtd">
<svg version="1.0" xmlns="http://www.w3.org/2000/svg"
 width="431.000000pt" height="431.000000pt" viewBox="0 0 431.000000 431.000000"
 preserveAspectRatio="xMidYMid meet">
<metadata>
Created by potrace 1.11, written by Peter Selinger 2001-2013
</metadata>
<g transform="translate(0.000000,431.000000) scale(0.100000,-0.100000)"
fill="#000000" stroke="none">
<path d="M1498 3490 c-40 -40 -48 -54 -48 -85 0 -20 -4 -34 -8 -31 -5 3 -20 7
-33 9 -14 3 -76 19 -139 36 l-113 32 -41 -38 c-68 -64 -65 -57 -66 -202 0
-111 -2 -132 -14 -128 -8 3 -30 9 -50 12 -32 7 -39 3 -86 -41 l-50 -49 0 -137
0 -137 -47 14 -48 15 -53 -53 -52 -52 2 -200 3 -200 95 -25 95 -25 3 -301 2
-301 58 -16 c31 -9 76 -21 99 -27 l42 -11 3 -101 3 -102 98 -24 97 -24 0 -102
0 -101 168 -44 c92 -25 181 -48 199 -53 l32 -9 3 -101 3 -101 145 -39 c80 -21
204 -54 275 -73 72 -19 185 -50 252 -68 l123 -34 49 52 c37 38 50 61 53 87 l3
34 146 -39 146 -39 52 53 c41 42 51 59 51 86 0 31 2 33 28 27 15 -4 36 -10 48
-15 17 -6 31 2 73 45 l51 52 0 132 c0 144 -2 140 60 122 33 -10 36 -8 87 42
l53 52 -2 601 -3 600 -95 25 -95 25 -3 101 -3 102 -47 12 c-26 6 -71 18 -99
26 l-53 15 0 99 0 98 -32 10 c-18 6 -63 18 -100 28 l-68 17 0 101 0 101 -238
62 c-130 35 -396 106 -591 158 -194 52 -359 95 -365 94 -6 0 -32 -22 -58 -49z
m354 -956 c51 -14 127 -34 168 -45 41 -11 110 -29 152 -40 l77 -21 3 -101 3
-101 95 -26 95 -25 3 -236 2 -236 -347 93 c-192 52 -349 94 -350 94 -5 0 -3
670 1 670 3 0 47 -11 98 -26z"/>
</g>
</svg>
